<?xml version="1.0" encoding="UTF-8"?>
<svg id="katman_1" xmlns="http://www.w3.org/2000/svg" version="1.1" viewBox="0 0 595.28 595.28">
  <!-- Generator: Adobe Illustrator 29.1.0, SVG Export Plug-In . SVG Version: 2.1.0 Build 142)  -->
  <defs>
    <style>
      .st0 {
        fill: #1d1d1b;
      }
    </style>
  </defs>
  <path class="st0" d="M143.34,366.64h-15.56v-137.89h136.79c60,0,69.47,53.9,69.47,53.9l33.67-53.9h35.28l64.49,104.55-20.2,33.34h-85.04v-16.63h95.12l-72.05-121.25s-47.48,82.62-57.68,98.72c-10.19,16.1-29.34,39.17-62.14,39.17h-50.8v-82.09h16.1v65.46h37.02c16.37,0,51.51-13.95,51.51-53.38s-37.56-51.77-49.9-51.77h-126.08v121.79h0ZM148.71,366.64v-58.48h60.09v16.1h-43.99v42.39h-16.1,0ZM208.8,301.19v-16.63h-43.99v-17.64h101.24c15.18,0,31.29,12.28,31.29,30.25s-16.29,30.31-27.9,30.31h-15.78v-42.92h-16.63v59.02h32.41c20.53,0,44.26-17.82,44.26-45.87s-21.58-46.95-47.4-46.95h-117.58v50.43h60.09,0ZM311.54,366.64l73.77-121.79,60.63,98.72h-83.69v-16.1h54.19l-31.12-50.7-51.24,89.87h-22.54Z"/>
  <g>
    <path class="st0" d="M166.73,165.83l-8.45-3.1-15.41,16.76,3.8,8.16-7.82,8.5-19.99-46.53,7.82-8.5,47.95,16.11-7.91,8.6ZM130.38,152.41l8.28,17.92,10.19-11.08-18.46-6.84Z"/>
    <path class="st0" d="M170.05,105.98c4.53-2.96,8.95-4.04,13.28-3.32,4.28.75,7.8,3.26,10.58,7.51s3.66,8.49,2.63,12.71c-1.08,4.25-3.84,7.87-8.37,10.83l-9.45,6.17,7.15,10.94-9.06,5.92-25.27-38.67,18.51-12.09ZM182.57,126.11c3.81-2.49,4.73-6.4,2.38-9.99-2.35-3.59-6.29-4.32-10.1-1.83l-9.06,5.92,7.72,11.82,9.06-5.92Z"/>
    <path class="st0" d="M219.02,82.74c5.1-1.82,9.65-1.83,13.69-.12,3.98,1.73,6.83,4.99,8.54,9.78,1.71,4.79,1.57,9.11-.41,12.97-2.05,3.88-5.58,6.76-10.67,8.58l-10.63,3.79,4.39,12.31-10.19,3.64-15.53-43.51,20.82-7.43ZM226.49,105.23c4.29-1.53,6.09-5.12,4.65-9.16-1.44-4.04-5.11-5.67-9.4-4.14l-10.19,3.64,4.75,13.3,10.19-3.64Z"/>
    <path class="st0" d="M283.66,116.85l-13.25-13.96-6.24.64,1.57,15.17-10.77,1.11-4.75-45.96,22.39-2.31c4.99-.52,9.14.51,12.46,3.03,3.32,2.58,5.21,6.16,5.7,10.83.73,7.02-2.55,12.6-8.96,15.39l14.66,14.74-12.8,1.32ZM280.14,86.62c-.21-2.04-.97-3.62-2.33-4.6s-3.2-1.4-5.49-1.16l-10.44,1.08,1.34,12.93,10.44-1.08c2.3-.24,4.01-1.01,5.14-2.26,1.13-1.25,1.56-2.88,1.35-4.92Z"/>
    <path class="st0" d="M321.45,120.2c-7.43-1.16-13.02-4.3-16.84-9.37-3.82-5.07-5.14-11.16-4.01-18.39,1.13-7.24,4.25-12.7,9.43-16.37,5.18-3.67,11.45-4.9,18.89-3.74,7.43,1.16,13.03,4.23,16.85,9.3,3.82,5.07,5.13,11.22,4,18.46-1.13,7.24-4.24,12.63-9.42,16.3-5.18,3.67-11.46,4.96-18.9,3.8ZM322.94,110.68c4.17.65,7.77-.13,10.73-2.4,2.95-2.21,4.73-5.48,5.41-9.85.68-4.37-.02-8.02-2.15-11.09-2.14-3-5.33-4.84-9.5-5.49-4.17-.65-7.7.14-10.65,2.35-2.96,2.28-4.74,5.54-5.42,9.91-.68,4.37.02,8.02,2.16,11.02,2.13,3.07,5.25,4.89,9.42,5.54Z"/>
    <path class="st0" d="M397.39,95.18l10.94,4.8-35.96,34.68-10.46-4.59,1.15-49.95,10.94,4.8-.63,16.88-1.23,19.07,13.32-13.76,11.93-11.92Z"/>
    <path class="st0" d="M405.09,143.31l20.29,15.41-5.51,7.25-28.65-21.75,27.94-36.79,28.07,21.31-5.47,7.2-19.71-14.97-5.67,7.46,18.66,14.17-5.27,6.94-18.66-14.17-6.03,7.94Z"/>
    <path class="st0" d="M471.71,155.25c4.54,5.58,6.56,11.42,6.05,17.37-.57,5.99-3.55,11.22-8.98,15.64-5.43,4.41-11.15,6.26-17.09,5.56-5.98-.66-11.29-3.84-15.83-9.42l-11.95-14.7,35.84-29.15,11.95,14.7ZM443.19,178.45c4.87,5.99,12.26,6.71,18.76,1.42,6.4-5.21,7.31-12.66,2.44-18.66l-5.12-6.3-21.2,17.24,5.12,6.3Z"/>
  </g>
  <g>
    <path class="st0" d="M132.9,461.12l4.65-7.7-13.52-18.32-8.73,2.18-6.86-9.29,49.47-10.75,6.86,9.29-24.95,43.99-6.94-9.4ZM153,428l-19.16,4.71,8.93,12.11,10.23-16.81Z"/>
    <path class="st0" d="M195.25,456.22c4.24,3.37,6.65,7.23,7.33,11.56.63,4.3-.63,8.43-3.8,12.41s-6.91,6.14-11.24,6.5c-4.38.31-8.68-1.17-12.92-4.54l-8.83-7.02-8.13,10.23-8.47-6.74,28.75-36.17,17.31,13.76ZM180.09,474.44c3.56,2.83,7.56,2.47,10.23-.89s2.12-7.34-1.44-10.17l-8.47-6.74-8.79,11.06,8.47,6.74Z"/>
    <path class="st0" d="M231.39,477.15c4.93,2.24,8.2,5.4,9.92,9.44,1.65,4.01,1.43,8.33-.68,12.96-2.1,4.62-5.21,7.63-9.33,9.02-4.17,1.36-8.71.97-13.63-1.27l-10.27-4.67-5.41,11.89-9.85-4.48,19.13-42.05,20.12,9.16ZM221.1,498.5c4.15,1.89,7.94.57,9.71-3.34s.28-7.63-3.86-9.52l-9.85-4.48-5.85,12.85,9.85,4.48Z"/>
    <path class="st0" d="M269.74,535.32l-8.87-17.08-6.17-1.11-2.69,15.01-10.65-1.91,8.16-45.47,22.15,3.97c4.94.89,8.64,3.03,11.13,6.36,2.48,3.4,3.3,7.37,2.48,11.98-1.25,6.95-5.94,11.41-12.87,12.31l10.01,18.22-12.67-2.27ZM274.72,505.31c.36-2.01.07-3.74-.97-5.07-1.04-1.33-2.68-2.23-4.96-2.63l-10.33-1.85-2.3,12.8,10.33,1.85c2.27.41,4.13.14,5.57-.75,1.43-.88,2.3-2.34,2.66-4.35Z"/>
    <path class="st0" d="M318.53,537.06c-7.49.72-13.68-.94-18.64-4.91-4.96-3.97-7.75-9.53-8.45-16.83-.7-7.29.97-13.36,5.09-18.19,4.11-4.84,9.88-7.58,17.37-8.3,7.49-.72,13.68.88,18.63,4.84,4.96,3.97,7.75,9.6,8.45,16.89.7,7.29-.98,13.29-5.09,18.13-4.11,4.84-9.88,7.65-17.37,8.36ZM317.6,527.47c4.21-.4,7.5-2.04,9.8-4.98,2.31-2.88,3.22-6.48,2.8-10.88s-2-7.76-4.83-10.21c-2.81-2.38-6.36-3.37-10.56-2.97s-7.43,2.04-9.74,4.91c-2.3,2.94-3.22,6.54-2.8,10.95.42,4.4,2,7.76,4.82,10.15,2.82,2.45,6.3,3.44,10.5,3.04Z"/>
    <path class="st0" d="M370.35,475.04l11.17-4.25-1.35,49.94-10.67,4.06-34.18-36.43,11.17-4.24,11.38,12.48,12.49,14.46-.15-19.15.16-16.86Z"/>
    <path class="st0" d="M411.44,494.07l20.88-14.59,5.22,7.46-29.48,20.6-26.46-37.87,28.89-20.19,5.18,7.41-20.29,14.18,5.37,7.68,19.21-13.42,4.99,7.14-19.21,13.42,5.71,8.17Z"/>
    <path class="st0" d="M426.25,432.28c4.68-5.46,10.06-8.5,16.01-9.05,6-.51,11.68,1.49,16.99,6.04s8.16,9.86,8.52,15.82c.42,6.01-1.76,11.79-6.44,17.26l-12.32,14.39-35.09-30.06,12.32-14.39ZM454.17,456.2c5.02-5.87,4.41-13.26-1.96-18.71-6.27-5.37-13.77-4.93-18.79.94l-5.28,6.17,20.75,17.78,5.28-6.17Z"/>
  </g>
  <path class="st0" d="M297.64,561.51c-70.48,0-136.75-27.45-186.58-77.29-49.84-49.84-77.29-116.1-77.29-186.58s27.45-136.75,77.29-186.58,116.1-77.29,186.58-77.29,136.75,27.45,186.58,77.29c49.84,49.84,77.29,116.1,77.29,186.58s-27.45,136.75-77.29,186.58c-49.84,49.84-116.1,77.29-186.58,77.29ZM297.64,41.77c-68.35,0-132.6,26.62-180.93,74.94-48.33,48.33-74.94,112.58-74.94,180.93s26.62,132.6,74.94,180.93c48.33,48.33,112.58,74.94,180.93,74.94s132.6-26.62,180.93-74.94c48.33-48.33,74.94-112.58,74.94-180.93s-26.62-132.6-74.94-180.93c-48.33-48.33-112.58-74.94-180.93-74.94Z"/>
  <g>
    <path class="st0" d="M165.25,217.98c27.08-44.84,76.29-74.89,132.39-74.89s105.31,30.05,132.39,74.89h9.26c-27.91-49.43-80.94-82.89-141.65-82.89s-113.73,33.45-141.65,82.89h9.26Z"/>
    <path class="st0" d="M427.9,380.73c-27.49,42.94-75.6,71.45-130.26,71.45s-102.77-28.52-130.26-71.45h-9.39c28.4,47.54,80.36,79.45,139.65,79.45s111.25-31.91,139.65-79.45h-9.39Z"/>
  </g>
  <circle class="st0" cx="81.83" cy="297.64" r="19.05"/>
  <circle class="st0" cx="504.64" cy="297.64" r="19.05"/>
</svg>